<?xml version="1.0" encoding="UTF-8"?>
<!DOCTYPE svg PUBLIC "-//W3C//DTD SVG 1.1//EN" "http://www.w3.org/Graphics/SVG/1.1/DTD/svg11.dtd">
<!-- Creator: CorelDRAW 2018 (64-Bit) -->
<svg xmlns="http://www.w3.org/2000/svg" xml:space="preserve" width="54.5975mm" height="9.2187mm" version="1.1" shape-rendering="geometricPrecision" text-rendering="geometricPrecision" image-rendering="optimizeQuality" fill-rule="evenodd" clip-rule="evenodd"
viewBox="0 0 1610063 271857"
 xmlns:xlink="http://www.w3.org/1999/xlink">
 <g id="Слой_x0020_1">
  <metadata id="CorelCorpID_0Corel-Layer"/>
  <g id="_1182750336">
   <path fill="#FEFEFE" d="M643226 240241c2796,3052 6653,21395 32279,25435 19333,3049 35105,-5049 42518,-14951 9625,-12858 6877,-32857 6877,-51339l0 -115732c0,-16216 2542,-41303 -4718,-53503 -13114,-22041 -51055,-25571 -69280,-5279 -2781,3096 -3554,5582 -5895,8390 -4530,-3256 -8408,-6901 -13736,-10377 -92261,-60159 -210630,5689 -211568,111598 -531,59752 36042,102999 73795,122353 42244,21654 94907,20168 135260,-6219 5311,-3474 9785,-7066 14468,-10374zm-93008 -158433c-28567,3766 -52123,27092 -48575,60519 2970,27983 28664,51303 61023,47685 27116,-3032 51330,-29036 47299,-60666 -3415,-26812 -28561,-51645 -59746,-47537z"/>
   <path fill="#FEFEFE" d="M82798 41931c-5579,-11805 -8502,-25323 -30711,-29555 -20077,-3825 -35927,3695 -44538,14279 -10006,12303 -7178,34447 -7178,53087l0 121209c0,21238 -3082,38463 8924,52123 20967,23857 71560,15072 73727,-21687 1746,-29578 -2981,-95004 3023,-118404 4235,-16494 14117,-26812 34052,-26320 19737,487 28275,11805 30631,30360 3577,28127 -2418,100070 1477,119793 6626,33547 58219,39136 75853,12663 9062,-13601 6119,-35792 6119,-54004 0,-20068 35,-40141 0,-60212 -32,-19207 5016,-35376 16718,-43565 11740,-8219 33777,-7378 43645,7520 9210,13907 7597,33845 7597,52468 0,20330 0,40663 0,60994 0,22928 -159,35172 14715,45641 12973,9130 33379,10926 48655,2728 14854,-7974 19387,-18331 19375,-40548 -9,-20333 0,-40663 0,-60994 0,-39528 2138,-74860 -14963,-105948 -13559,-24650 -36762,-45004 -75435,-45579 -27593,-410 -46028,10304 -61899,28658 -2448,2828 -4397,4860 -6800,8051 -2150,2855 -4589,7104 -7420,8667 -5352,-13046 -13630,-24261 -22338,-31578 -21522,-18077 -58298,-17526 -83689,-3739 -9640,5237 -22843,15656 -29540,23893z"/>
   <path fill="#FEFEFE" d="M828569 139174c-2748,3860 -44332,44703 -48705,49056 -6874,6845 -17735,15193 -19761,29525 -4376,31000 35246,64093 65110,41634l61796 -61513c3371,1442 43394,42442 49431,48457 6927,6904 15258,17921 29112,20056 15509,2392 28499,-5467 35809,-13058 7252,-7526 15553,-19322 13674,-34992 -1743,-14524 -12560,-22689 -19463,-29563 -6561,-6532 -46915,-45927 -49097,-49602 2079,-3972 19437,-20080 23981,-24665 8340,-8419 16264,-16202 24650,-24615 7007,-7027 17741,-14878 19835,-29384 3704,-25662 -22834,-52061 -48640,-48708 -14164,1843 -22742,12975 -29543,19755 -6037,6019 -46594,47325 -49646,48882 -16343,-16231 -32427,-32294 -48853,-48714 -7048,-7048 -14969,-17968 -29333,-19891 -25618,-3430 -52049,22509 -48915,48098 1802,14715 12636,22813 19534,29723 8419,8428 16246,16190 24645,24618 4037,4049 22610,21920 24379,24901z"/>
   <rect fill="#FEFEFE" transform="matrix(1.7431E-14 -1.15091 1.12788 5.2362E-14 1.00985E+06 183525)" width="72247" height="74128" rx="34857" ry="34857"/>
   <path fill="#FEFEFE" fill-rule="nonzero" d="M1129735 255266c-7838,-8180 -11731,-17909 -11731,-29183l0 -175213c0,-7039 1775,-13562 5382,-19684 3545,-6066 8408,-10873 14535,-14420 6178,-3492 12931,-5267 20310,-5267 7154,115 13736,1949 19687,5494 6010,3607 10702,8416 14187,14538 3438,6063 5211,12757 5211,20026l0 49437 69696 -76104c3147,-3433 7039,-6467 11731,-9042 4636,-2232 10186,-3374 16768,-3374 7950,0 15220,2058 21799,6122 6641,4120 11448,9841 14591,17222 2347,5435 3554,11330 3554,17570 0,10528 -3380,18941 -10074,25346l-54137 51790 62032 69755c6697,7667 10015,16535 10015,26491 0,5665 -1315,11330 -3890,16883 -2630,5606 -6352,10245 -11159,13960 -4350,3321 -9387,5724 -15105,7213 -4695,855 -8186,1315 -10419,1315 -5550,0 -10929,-1147 -16081,-3377 -5146,-2232 -9496,-5382 -13046,-9558l-76617 -93842 0 67062c0,11501 -3893,21118 -11563,28838 -7720,7673 -16992,11563 -27868,11563 -4916,0 -9670,-917 -14302,-2804 -4639,-1834 -9157,-4748 -13506,-8758zm372865 -59855c11846,-2229 20200,-6750 25122,-13615l-20601 0c-9844,0 -18142,-3436 -24892,-10357 -6753,-6924 -10186,-15279 -10186,-25007 227,-6467 1887,-12303 4866,-17511 3029,-5205 7207,-9384 12530,-12474 5264,-3147 11103,-4692 17340,-4692l66549 0c24491,0 36735,13444 36735,40401 0,7835 -802,15848 -2347,24146 -1604,10357 -5435,21112 -11616,32159 -6809,12188 -15509,22660 -26033,31471 -10587,8758 -22719,15450 -36396,20026 -13674,4580 -28726,6871 -45149,6871 -9381,0 -19799,-917 -31185,-2689 -15677,-2689 -29811,-7384 -42515,-14019 -12707,-6641 -23807,-15223 -33306,-25694 -9502,-10528 -17054,-22489 -22772,-35880 -6582,-15904 -9903,-31985 -9903,-48295 0,-21457 5438,-41772 16370,-60940 10870,-19171 26264,-35022 46175,-47552 21690,-13503 46355,-20259 74108,-20259 3545,0 8697,230 15388,687 11961,973 23633,3265 35081,6871 10929,3548 21227,8239 30840,14072 19572,12819 29298,26611 29298,41203 0,8753 -4005,16594 -12070,23689 -5671,4975 -12533,7496 -20604,7496 -5895,0 -12244,-1374 -18941,-4179l-342 0 -14418 -7552c-3093,-1775 -5494,-2976 -7213,-3663 -13960,-6467 -26951,-9729 -39024,-9729 -9729,0 -18484,1946 -26151,5780 -7726,3834 -14134,9558 -19283,16995 -5152,7499 -8584,16196 -10245,25980 -687,3149 -1029,6237 -1029,9272 0,3890 342,7667 1029,11386 2002,9956 5609,18484 10758,25576 5096,7095 11616,12536 19513,16426 7900,3831 16768,5780 26724,5780 6063,0 11958,-743 17797,-2179z"/>
  </g>
 </g>
</svg>
