<svg xmlns="http://www.w3.org/2000/svg" style="display: none;">

    <!-- FavoritesIcon -->
  <symbol id="favorites-icon" viewBox="0 0 20 20">
    <path fill="white" d="M9.9986 1.0657C11.5871 0.0114026 13.6972 -0.279863 15.5201 0.333435C19.4853 1.67592 20.7163 6.21412 19.6153 9.8252C17.9164 15.4967 10.6609 19.7272 10.3532 19.9046C10.2438 19.9682 10.1227 20 10.0015 20C9.8804 20 9.76024 19.9692 9.65082 19.9067C9.34505 19.7313 2.14232 15.5633 0.386813 9.82622C0.385836 9.82622 0.385836 9.8252 0.385836 9.8252C-0.716115 6.2131 0.51088 1.67387 4.47224 0.333435C6.33227 -0.298323 8.35935 -0.0203905 9.9986 1.0657ZM4.92162 1.79797C1.71638 2.88303 0.911412 6.50231 1.78184 9.35651C3.15146 13.8301 8.56255 17.4473 10.0006 18.3427C11.4434 17.4381 16.8936 13.7809 18.2193 9.36061C19.0897 6.50334 18.2818 2.88406 15.0717 1.79797C13.5164 1.27389 11.7023 1.59285 10.4499 2.61023C10.1881 2.8215 9.82471 2.8256 9.56095 2.61638C8.23431 1.56926 6.50128 1.26261 4.92162 1.79797ZM14.1339 3.83467C15.4654 4.28695 16.3983 5.52483 16.5126 6.98834C16.5449 7.4119 16.2449 7.78316 15.8415 7.81701C15.821 7.81906 15.8014 7.82008 15.7809 7.82008C15.4029 7.82008 15.0824 7.51549 15.0512 7.11346C14.9867 6.27043 14.4494 5.55867 13.6845 5.2992C13.2986 5.16793 13.0876 4.73411 13.2117 4.33105C13.3377 3.92697 13.747 3.7075 14.1339 3.83467Z" />
  </symbol>

  <!-- FavoritesIconDark -->
  <symbol id="favorites-icon-dark" viewBox="0 0 20 20">
    <path fill="black" d="M9.9986 1.0657C11.5871 0.0114026 13.6972 -0.279863 15.5201 0.333435C19.4853 1.67592 20.7163 6.21412 19.6153 9.8252C17.9164 15.4967 10.6609 19.7272 10.3532 19.9046C10.2438 19.9682 10.1227 20 10.0015 20C9.8804 20 9.76024 19.9692 9.65082 19.9067C9.34505 19.7313 2.14232 15.5633 0.386813 9.82622C0.385836 9.82622 0.385836 9.8252 0.385836 9.8252C-0.716115 6.2131 0.51088 1.67387 4.47224 0.333435C6.33227 -0.298323 8.35935 -0.0203905 9.9986 1.0657ZM4.92162 1.79797C1.71638 2.88303 0.911412 6.50231 1.78184 9.35651C3.15146 13.8301 8.56255 17.4473 10.0006 18.3427C11.4434 17.4381 16.8936 13.7809 18.2193 9.36061C19.0897 6.50334 18.2818 2.88406 15.0717 1.79797C13.5164 1.27389 11.7023 1.59285 10.4499 2.61023C10.1881 2.8215 9.82471 2.8256 9.56095 2.61638C8.23431 1.56926 6.50128 1.26261 4.92162 1.79797ZM14.1339 3.83467C15.4654 4.28695 16.3983 5.52483 16.5126 6.98834C16.5449 7.4119 16.2449 7.78316 15.8415 7.81701C15.821 7.81906 15.8014 7.82008 15.7809 7.82008C15.4029 7.82008 15.0824 7.51549 15.0512 7.11346C14.9867 6.27043 14.4494 5.55867 13.6845 5.2992C13.2986 5.16793 13.0876 4.73411 13.2117 4.33105C13.3377 3.92697 13.747 3.7075 14.1339 3.83467Z" />
  </symbol>

  <!-- CartIcon -->
  <symbol id="cart-icon" viewBox="0 0 20 20">
    <path fill="currentColor" d="M3.82432 1.38401L0.918518 4.68201C0.571922 5.04989 0.5 5.56442 0.5 5.82801V6.33201H1.96282L4.3357 13.3334C4.43964 13.6696 4.73073 13.9145 5.07182 13.9996L15.5718 17.6469C15.9479 17.7461 16.3194 17.5931 16.4993 17.2631C16.5686 17.1143 16.6039 16.9538 16.6039 16.792V6.79201C16.6039 6.20464 16.1673 5.72801 15.6039 5.72801H5.6039L5.1635 4.00001H18.5C18.7761 4.00001 19 3.77608 19 3.50001C19 3.22395 18.7761 3 18.5 3H4.39559L3.98962 1.20927C3.93539 1.0606 3.77266 0.999012 3.62195 1.05191C3.47322 1.10327 3.41091 1.26431 3.46252 1.41401L3.82432 1.38401ZM5.6039 8.00001H15.6039L14.3816 11.332H6.82771L5.6039 8.00001ZM7.75812 14.0006L6.91028 12.0006H12.4679L13.7581 14.0006H7.75812Z" />
  </symbol>

  <!-- CartIconDark -->
  <symbol id="cart-icon-dark" viewBox="0 0 20 20">
    <path fill="currentColor" d="M3.82432 1.38401L0.918518 4.68201C0.571922 5.04989 0.5 5.56442 0.5 5.82801V6.33201H1.96282L4.3357 13.3334C4.43964 13.6696 4.73073 13.9145 5.07182 13.9996L15.5718 17.6469C15.9479 17.7461 16.3194 17.5931 16.4993 17.2631C16.5686 17.1143 16.6039 16.9538 16.6039 16.792V6.79201C16.6039 6.20464 16.1673 5.72801 15.6039 5.72801H5.6039L5.1635 4.00001H18.5C18.7761 4.00001 19 3.77608 19 3.50001C19 3.22395 18.7761 3 18.5 3H4.39559L3.98962 1.20927C3.93539 1.0606 3.77266 0.999012 3.62195 1.05191C3.47322 1.10327 3.41091 1.26431 3.46252 1.41401L3.82432 1.38401ZM5.6039 8.00001H15.6039L14.3816 11.332H6.82771L5.6039 8.00001ZM7.75812 14.0006L6.91028 12.0006H12.4679L13.7581 14.0006H7.75812Z" />
  </symbol>

  <!-- FavoritesIconActive -->
  <symbol id="favorites-icon-active" viewBox="0 0 20 20">
    <path fill="#991A4E" d="M9.9986 1.0657C11.5871 0.0114026 13.6972 -0.279863 15.5201 0.333435C19.4853 1.67592 20.7163 6.21412 19.6153 9.8252C17.9164 15.4967 10.6609 19.7272 10.3532 19.9046C10.2438 19.9682 10.1227 20 10.0015 20C9.8804 20 9.76024 19.9692 9.65082 19.9067C9.34505 19.7313 2.14232 15.5633 0.386813 9.82622C0.385836 9.82622 0.385836 9.8252 0.385836 9.8252C-0.716115 6.2131 0.51088 1.67387 4.47224 0.333435C6.33227 -0.298323 8.35935 -0.0203905 9.9986 1.0657ZM4.92162 1.79797C1.71638 2.88303 0.911412 6.50231 1.78184 9.35651C3.15146 13.8301 8.56255 17.4473 10.0006 18.3427C11.4434 17.4381 16.8936 13.7809 18.2193 9.36061C19.0897 6.50334 18.2818 2.88406 15.0717 1.79797C13.5164 1.27389 11.7023 1.59285 10.4499 2.61023C10.1881 2.8215 9.82471 2.8256 9.56095 2.61638C8.23431 1.56926 6.50128 1.26261 4.92162 1.79797ZM14.1339 3.83467C15.4654 4.28695 16.3983 5.52483 16.5126 6.98834C16.5449 7.4119 16.2449 7.78316 15.8415 7.81701C15.821 7.81906 15.8014 7.82008 15.7809 7.82008C15.4029 7.82008 15.0824 7.51549 15.0512 7.11346C14.9867 6.27043 14.4494 5.55867 13.6845 5.2992C13.2986 5.16793 13.0876 4.73411 13.2117 4.33105C13.3377 3.92697 13.747 3.7075 14.1339 3.83467Z"/>
  </symbol>
  
  <!-- AuthIcon -->
  <symbol id="auth-icon" viewBox="0 0 20 20">
    <path fill="white" d="M7.877 12.5853L7.99611 12.5853L8.26007 12.5861C10.502 12.5982 15.754 12.8041 15.754 16.3045C15.754 19.55 11.4406 19.9837 8.0854 20L7.49393 19.9997C5.25199 19.9876 0 19.7818 0 16.2823C0 12.9682 4.495 12.5853 7.877 12.5853ZM7.877 14.1009C3.646 14.1009 1.5 14.8354 1.5 16.2823C1.5 17.7433 3.646 18.4849 7.877 18.4849C12.108 18.4849 14.254 17.7504 14.254 16.3045C14.254 14.8415 12.108 14.1009 7.877 14.1009ZM17.2041 5.98014C17.6181 5.98014 17.9541 6.31963 17.9541 6.73793L17.954 8.00525L19.25 8.00606C19.664 8.00606 20 8.34555 20 8.76385C20 9.18215 19.664 9.52163 19.25 9.52163L17.954 9.52082L17.9541 10.7906C17.9541 11.2089 17.6181 11.5484 17.2041 11.5484C16.7901 11.5484 16.4541 11.2089 16.4541 10.7906L16.454 9.52082L15.16 9.52163C14.746 9.52163 14.41 9.18215 14.41 8.76385C14.41 8.34555 14.746 8.00606 15.16 8.00606L16.454 8.00525L16.4541 6.73793C16.4541 6.31963 16.7901 5.98014 17.2041 5.98014ZM7.877 0C10.81 0 13.195 2.41077 13.195 5.37321C13.195 8.33565 10.81 10.7464 7.877 10.7464H7.846C6.427 10.7414 5.097 10.1786 4.1 9.16416C3.102 8.14873 2.555 6.80088 2.55997 5.37018C2.55997 2.41077 4.945 0 7.877 0ZM7.877 1.51557C5.773 1.51557 4.05997 3.24636 4.05997 5.37321C4.056 6.40279 4.448 7.3677 5.163 8.09619C5.879 8.82366 6.833 9.2268 7.849 9.23084L7.877 9.97954V9.23084C9.982 9.23084 11.695 7.50006 11.695 5.37321C11.695 3.24636 9.982 1.51557 7.877 1.51557Z"/>
  </symbol>
  
  <!-- AuthIconDark -->
  <symbol id="auth-icon-dark" viewBox="0 0 20 20">
    <path fill="black" d="M7.877 12.5853L7.99611 12.5853L8.26007 12.5861C10.502 12.5982 15.754 12.8041 15.754 16.3045C15.754 19.55 11.4406 19.9837 8.0854 20L7.49393 19.9997C5.25199 19.9876 0 19.7818 0 16.2823C0 12.9682 4.495 12.5853 7.877 12.5853ZM7.877 14.1009C3.646 14.1009 1.5 14.8354 1.5 16.2823C1.5 17.7433 3.646 18.4849 7.877 18.4849C12.108 18.4849 14.254 17.7504 14.254 16.3045C14.254 14.8415 12.108 14.1009 7.877 14.1009ZM17.2041 5.98014C17.6181 5.98014 17.9541 6.31963 17.9541 6.73793L17.954 8.00525L19.25 8.00606C19.664 8.00606 20 8.34555 20 8.76385C20 9.18215 19.664 9.52163 19.25 9.52163L17.954 9.52082L17.9541 10.7906C17.9541 11.2089 17.6181 11.5484 17.2041 11.5484C16.7901 11.5484 16.4541 11.2089 16.4541 10.7906L16.454 9.52082L15.16 9.52163C14.746 9.52163 14.41 9.18215 14.41 8.76385C14.41 8.34555 14.746 8.00606 15.16 8.00606L16.454 8.00525L16.4541 6.73793C16.4541 6.31963 16.7901 5.98014 17.2041 5.98014ZM7.877 0C10.81 0 13.195 2.41077 13.195 5.37321C13.195 8.33565 10.81 10.7464 7.877 10.7464H7.846C6.427 10.7414 5.097 10.1786 4.1 9.16416C3.102 8.14873 2.555 6.80088 2.55997 5.37018C2.55997 2.41077 4.945 0 7.877 0ZM7.877 1.51557C5.773 1.51557 4.05997 3.24636 4.05997 5.37321C4.056 6.40279 4.448 7.3677 5.163 8.09619C5.879 8.82366 6.833 9.2268 7.849 9.23084L7.877 9.97954V9.23084C9.982 9.23084 11.695 7.50006 11.695 5.37321C11.695 3.24636 9.982 1.51557 7.877 1.51557Z"/>
  </symbol>


    <symbol id="auth-icon-active" viewBox="0 0 20 20">
    <path
        d="M7.877 12.5853L7.99611 12.5853L8.26007 12.5861C10.502 12.5982 15.754 12.8041 15.754 16.3045C15.754 19.55 11.4406 19.9837 8.0854 20L7.49393 19.9997C5.25199 19.9876 0 19.7818 0 16.2823C0 12.9682 4.495 12.5853 7.877 12.5853ZM7.877 14.1009C3.646 14.1009 1.5 14.8354 1.5 16.2823C1.5 17.7433 3.646 18.4849 7.877 18.4849C12.108 18.4849 14.254 17.7504 14.254 16.3045C14.254 14.8415 12.108 14.1009 7.877 14.1009ZM17.2041 5.98014C17.6181 5.98014 17.9541 6.31963 17.9541 6.73793L17.954 8.00525L19.25 8.00606C19.664 8.00606 20 8.34555 20 8.76385C20 9.18215 19.664 9.52163 19.25 9.52163L17.954 9.52082L17.9541 10.7906C17.9541 11.2089 17.6181 11.5484 17.2041 11.5484C16.7901 11.5484 16.4541 11.2089 16.4541 10.7906L16.454 9.52082L15.16 9.52163C14.746 9.52163 14.41 9.18215 14.41 8.76385C14.41 8.34555 14.746 8.00606 15.16 8.00606L16.454 8.00525L16.4541 6.73793C16.4541 6.31963 16.7901 5.98014 17.2041 5.98014ZM7.877 0C10.81 0 13.195 2.41077 13.195 5.37321C13.195 8.33565 10.81 10.7464 7.877 10.7464H7.846C6.427 10.7414 5.097 10.1786 4.1 9.16416C3.102 8.14873 2.555 6.80088 2.55997 5.37018C2.55997 2.41077 4.945 0 7.877 0ZM7.877 1.51557C5.773 1.51557 4.05997 3.24636 4.05997 5.37321C4.056 6.40279 4.448 7.3677 5.163 8.09619C5.879 8.82366 6.833 9.2268 7.849 9.23084L7.877 9.97954V9.23084C9.982 9.23084 11.695 7.50006 11.695 5.37321C11.695 3.24636 9.982 1.51557 7.877 1.51557Z"
        fill="#991A4E"
      />
    </symbol>

</svg>