<svg width="32" height="32" viewBox="0 0 32 32" fill="none" xmlns="http://www.w3.org/2000/svg">
<path d="M3.42854 29.7143H8.57139V24.5714H3.42854V29.7143ZM9.71425 29.7143H15.4285V24.5714H9.71425V29.7143ZM3.42854 23.4286H8.57139V17.7143H3.42854V23.4286ZM9.71425 23.4286H15.4285V17.7143H9.71425V23.4286ZM3.42854 16.5714H8.57139V11.4286H3.42854V16.5714ZM16.5714 29.7143H22.2857V24.5714H16.5714V29.7143ZM9.71425 16.5714H15.4285V11.4286H9.71425V16.5714ZM23.4285 29.7143H28.5714V24.5714H23.4285V29.7143ZM16.5714 23.4286H22.2857V17.7143H16.5714V23.4286ZM10.2857 8V2.85714C10.2857 2.70238 10.2291 2.56845 10.116 2.45536C10.0029 2.34226 9.86901 2.28571 9.71425 2.28571H8.57139C8.41663 2.28571 8.2827 2.34226 8.16961 2.45536C8.05651 2.56845 7.99996 2.70238 7.99996 2.85714V8C7.99996 8.15476 8.05651 8.28869 8.16961 8.40179C8.2827 8.51488 8.41663 8.57143 8.57139 8.57143H9.71425C9.86901 8.57143 10.0029 8.51488 10.116 8.40179C10.2291 8.28869 10.2857 8.15476 10.2857 8ZM23.4285 23.4286H28.5714V17.7143H23.4285V23.4286ZM16.5714 16.5714H22.2857V11.4286H16.5714V16.5714ZM23.4285 16.5714H28.5714V11.4286H23.4285V16.5714ZM24 8V2.85714C24 2.70238 23.9434 2.56845 23.8303 2.45536C23.7172 2.34226 23.5833 2.28571 23.4285 2.28571H22.2857C22.1309 2.28571 21.997 2.34226 21.8839 2.45536C21.7708 2.56845 21.7142 2.70238 21.7142 2.85714V8C21.7142 8.15476 21.7708 8.28869 21.8839 8.40179C21.997 8.51488 22.1309 8.57143 22.2857 8.57143H23.4285C23.5833 8.57143 23.7172 8.51488 23.8303 8.40179C23.9434 8.28869 24 8.15476 24 8ZM30.8571 6.85714V29.7143C30.8571 30.3333 30.6309 30.869 30.1785 31.3214C29.7262 31.7738 29.1904 32 28.5714 32H3.42854C2.80949 32 2.27377 31.7738 1.82139 31.3214C1.36901 30.869 1.14282 30.3333 1.14282 29.7143V6.85714C1.14282 6.2381 1.36901 5.70238 1.82139 5.25C2.27377 4.79762 2.80949 4.57143 3.42854 4.57143H5.71425V2.85714C5.71425 2.07143 5.99401 1.39881 6.55354 0.839286C7.11306 0.279762 7.78568 0 8.57139 0H9.71425C10.5 0 11.1726 0.279762 11.7321 0.839286C12.2916 1.39881 12.5714 2.07143 12.5714 2.85714V4.57143H19.4285V2.85714C19.4285 2.07143 19.7083 1.39881 20.2678 0.839286C20.8273 0.279762 21.5 0 22.2857 0H23.4285C24.2142 0 24.8869 0.279762 25.4464 0.839286C26.0059 1.39881 26.2857 2.07143 26.2857 2.85714V4.57143H28.5714C29.1904 4.57143 29.7262 4.79762 30.1785 5.25C30.6309 5.70238 30.8571 6.2381 30.8571 6.85714Z" fill="#212529"/>
</svg>
