<svg width="35" height="35" viewBox="0 0 35 35" fill="none" xmlns="http://www.w3.org/2000/svg">
<g clip-path="url(#clip0_296_381)">
<g clip-path="url(#clip1_296_381)">
<path d="M4.50952 17.9561H17.2595V20.0811H4.50952V17.9561Z" fill="#112B66"/>
<path d="M2.38452 12.6436H13.0095V14.7686H2.38452V12.6436Z" fill="#112B66"/>
<path d="M32.0486 18.5999L28.8611 11.1624C28.7793 10.9713 28.6431 10.8083 28.4696 10.6938C28.296 10.5794 28.0926 10.5185 27.8847 10.5186H24.6972V8.39355C24.6972 8.11176 24.5852 7.84151 24.386 7.64226C24.1867 7.443 23.9165 7.33105 23.6347 7.33105H6.63466V9.45605H22.5722V22.7968C22.088 23.0779 21.6643 23.4522 21.3255 23.8978C20.9867 24.3435 20.7394 24.8519 20.5981 25.3936H13.9213C13.6627 24.392 13.0477 23.5191 12.1916 22.9385C11.3354 22.358 10.2969 22.1096 9.27071 22.24C8.24456 22.3703 7.30114 22.8704 6.61732 23.6466C5.93352 24.4227 5.55625 25.4216 5.55625 26.4561C5.55625 27.4905 5.93352 28.4894 6.61732 29.2656C7.30114 30.0417 8.24456 30.5418 9.27071 30.6721C10.2969 30.8025 11.3354 30.5542 12.1916 29.9736C13.0477 29.393 13.6627 28.5201 13.9213 27.5186H20.5981C20.8292 28.4304 21.3578 29.2392 22.1002 29.817C22.8426 30.3946 23.7565 30.7084 24.6972 30.7084C25.6379 30.7084 26.5517 30.3946 27.2942 29.817C28.0366 29.2392 28.5652 28.4304 28.7963 27.5186H31.0722C31.354 27.5186 31.6242 27.4066 31.8235 27.2074C32.0227 27.0081 32.1347 26.7378 32.1347 26.4561V19.0186C32.1347 18.8747 32.1054 18.7322 32.0486 18.5999ZM9.82219 28.5811C9.40186 28.5811 8.99106 28.4564 8.64158 28.223C8.29213 27.9895 8.01976 27.6575 7.85893 27.2692C7.69809 26.881 7.65601 26.4537 7.738 26.0415C7.81999 25.6293 8.02238 25.2507 8.31957 24.9534C8.61675 24.6563 8.99539 24.4539 9.40756 24.3719C9.81981 24.2899 10.2471 24.332 10.6354 24.4928C11.0237 24.6536 11.3555 24.9261 11.589 25.2755C11.8226 25.6249 11.9472 26.0357 11.9472 26.4561C11.9466 27.0194 11.7225 27.5596 11.3241 27.958C10.9257 28.3564 10.3856 28.5805 9.82219 28.5811ZM24.6972 12.6436H27.1834L29.4614 17.9561H24.6972V12.6436ZM24.6972 28.5811C24.2769 28.5811 23.8661 28.4564 23.5165 28.223C23.1671 27.9895 22.8948 27.6575 22.7339 27.2692C22.5731 26.881 22.531 26.4537 22.613 26.0415C22.695 25.6293 22.8974 25.2507 23.1946 24.9534C23.4917 24.6563 23.8704 24.4539 24.2826 24.3719C24.6948 24.2899 25.1221 24.332 25.5104 24.4928C25.8987 24.6536 26.2305 24.9261 26.464 25.2755C26.6976 25.6249 26.8222 26.0357 26.8222 26.4561C26.8216 27.0194 26.5975 27.5596 26.1991 27.958C25.8007 28.3564 25.2606 28.5805 24.6972 28.5811ZM30.0097 25.3936H28.7963C28.5622 24.4835 28.0328 23.6767 27.291 23.0999C26.5492 22.523 25.6369 22.2087 24.6972 22.2061V20.0811H30.0097V25.3936Z" fill="#112B66"/>
</g>
</g>
<defs>
<clipPath id="clip0_296_381">
<rect width="34" height="34" fill="white" transform="translate(0.259521 0.956055)"/>
</clipPath>
<clipPath id="clip1_296_381">
<rect width="34" height="34" fill="white" transform="translate(0.259521 0.956055)"/>
</clipPath>
</defs>
</svg>
