<svg width="34" height="34" viewBox="0 0 34 34" fill="none" xmlns="http://www.w3.org/2000/svg">
<g clip-path="url(#clip0_393_2)">
<g clip-path="url(#clip1_393_2)">
<path d="M4.25 17H17V19.125H4.25V17Z" fill="#555555"/>
<path d="M2.125 11.6875H12.75V13.8125H2.125V11.6875Z" fill="#555555"/>
<path d="M31.7891 17.6439L28.6016 10.2064C28.5198 10.0152 28.3836 9.85226 28.21 9.73777C28.0365 9.62336 27.8331 9.56242 27.6252 9.5625H24.4377V7.4375C24.4377 7.15571 24.3257 6.88546 24.1265 6.6862C23.9271 6.48694 23.6569 6.375 23.3752 6.375H6.37513V8.5H22.3127V21.8408C21.8285 22.1218 21.4048 22.4961 21.066 22.9418C20.7272 23.3874 20.4799 23.8958 20.3385 24.4375H13.6618C13.4031 23.4359 12.7882 22.5631 11.932 21.9824C11.0758 21.4019 10.0374 21.1535 9.01118 21.2839C7.98503 21.4142 7.04161 21.9144 6.35779 22.6905C5.67399 23.4666 5.29672 24.4656 5.29672 25.5C5.29672 26.5345 5.67399 27.5334 6.35779 28.3095C7.04161 29.0856 7.98503 29.5858 9.01118 29.7161C10.0374 29.8465 11.0758 29.5981 11.932 29.0176C12.7882 28.4369 13.4031 27.5641 13.6618 26.5625H20.3385C20.5697 27.4744 21.0983 28.2832 21.8407 28.8609C22.583 29.4386 23.497 29.7523 24.4377 29.7523C25.3784 29.7523 26.2922 29.4386 27.0347 28.8609C27.7771 28.2832 28.3057 27.4744 28.5368 26.5625H30.8127C31.0944 26.5625 31.3647 26.4506 31.564 26.2513C31.7632 26.0521 31.8752 25.7818 31.8752 25.5V18.0625C31.8752 17.9186 31.8459 17.7761 31.7891 17.6439ZM9.56266 27.625C9.14234 27.625 8.73153 27.5004 8.38205 27.2669C8.0326 27.0334 7.76023 26.7015 7.5994 26.3132C7.43856 25.9249 7.39648 25.4976 7.47847 25.0855C7.56046 24.6732 7.76285 24.2946 8.06004 23.9974C8.35722 23.7002 8.73586 23.4978 9.14803 23.4158C9.56028 23.3339 9.98757 23.3759 10.3759 23.5368C10.7641 23.6976 11.096 23.97 11.3295 24.3194C11.5631 24.6689 11.6877 25.0797 11.6877 25.5C11.6871 26.0634 11.463 26.6036 11.0646 27.002C10.6662 27.4003 10.126 27.6244 9.56266 27.625ZM24.4377 11.6875H26.9239L29.2019 17H24.4377V11.6875ZM24.4377 27.625C24.0173 27.625 23.6065 27.5004 23.257 27.2669C22.9076 27.0334 22.6352 26.7015 22.4744 26.3132C22.3136 25.9249 22.2714 25.4976 22.3535 25.0855C22.4355 24.6732 22.6379 24.2946 22.935 23.9974C23.2322 23.7002 23.6109 23.4978 24.023 23.4158C24.4353 23.3339 24.8626 23.3759 25.2509 23.5368C25.6391 23.6976 25.971 23.97 26.2045 24.3194C26.4381 24.6689 26.5627 25.0797 26.5627 25.5C26.5621 26.0634 26.338 26.6036 25.9396 27.002C25.5412 27.4003 25.001 27.6244 24.4377 27.625ZM29.7502 24.4375H28.5368C28.3027 23.5274 27.7733 22.7207 27.0314 22.1439C26.2896 21.567 25.3773 21.2526 24.4377 21.25V19.125H29.7502V24.4375Z" fill="#555555"/>
</g>
</g>
<defs>
<clipPath id="clip0_393_2">
<rect width="34" height="34" fill="white"/>
</clipPath>
<clipPath id="clip1_393_2">
<rect width="34" height="34" fill="white"/>
</clipPath>
</defs>
</svg>
