<svg width="6" height="15" viewBox="0 0 6 15" fill="none" xmlns="http://www.w3.org/2000/svg">
<g clip-path="url(#clip0_101_536)">
<path d="M4.71191 7.86572C4.764 7.91781 4.79004 7.9777 4.79004 8.04541C4.79004 8.11312 4.764 8.17301 4.71191 8.2251L1.07129 11.8657C1.01921 11.9178 0.95931 11.9438 0.891602 11.9438C0.823893 11.9438 0.763997 11.9178 0.711914 11.8657L0.321289 11.4751C0.269206 11.423 0.243164 11.3631 0.243164 11.2954C0.243164 11.2277 0.269206 11.1678 0.321289 11.1157L3.3916 8.04541L0.321289 4.9751C0.269206 4.92301 0.243164 4.86312 0.243164 4.79541C0.243164 4.7277 0.269206 4.66781 0.321289 4.61572L0.711914 4.2251C0.763997 4.17301 0.823893 4.14697 0.891602 4.14697C0.95931 4.14697 1.01921 4.17301 1.07129 4.2251L4.71191 7.86572Z" fill="white"/>
</g>
<defs>
<clipPath id="clip0_101_536">
<rect width="5" height="14" fill="white" transform="matrix(1 0 0 -1 0.141602 14.5454)"/>
</clipPath>
</defs>
</svg>
