<svg width="212" height="37" viewBox="0 0 212 37" fill="none" xmlns="http://www.w3.org/2000/svg">
<g clip-path="url(#clip0_1_5)">
<g clip-path="url(#clip1_1_5)">
<g clip-path="url(#clip2_1_5)">
<path fill-rule="evenodd" clip-rule="evenodd" d="M84.564 32.4547C84.9315 32.8558 85.4384 35.2667 88.8064 35.7976C91.3473 36.1984 93.4202 35.134 94.3945 33.8326C95.6595 32.1427 95.2983 29.5143 95.2983 27.0852V11.8746C95.2983 9.74333 95.6324 6.44616 94.6783 4.84272C92.9547 1.94588 87.9681 1.48194 85.5728 4.1489C85.2073 4.55581 85.1057 4.88254 84.7981 5.2516C84.2027 4.82366 83.693 4.3446 82.9927 3.88775C70.8669 -4.01891 55.3098 4.63546 55.1865 18.555C55.1167 26.4082 59.9235 32.0921 64.8853 34.6358C70.4374 37.4818 77.3589 37.2865 82.6625 33.8184C83.3605 33.3619 83.9485 32.8898 84.564 32.455V32.4547ZM72.34 11.632C68.5854 12.1269 65.4895 15.1927 65.9558 19.5859C66.3462 23.2637 69.7231 26.3287 73.976 25.8532C77.5399 25.4547 80.7223 22.037 80.1925 17.8799C79.7437 14.356 76.4387 11.0922 72.3401 11.6321L72.34 11.632Z" fill="#FEFEFE"/>
<path fill-rule="evenodd" clip-rule="evenodd" d="M10.9073 6.39096C10.174 4.83944 9.78984 3.06277 6.87093 2.50656C4.23222 2.00385 2.14906 2.9922 1.01732 4.38324C-0.297758 6.00022 0.0739243 8.91059 0.0739243 11.3604V27.2909C0.0739243 30.0822 -0.331141 32.346 1.2468 34.1414C4.00248 37.2769 10.6519 36.1223 10.9367 31.291C11.1662 27.4036 10.5449 18.8047 11.334 15.7293C11.8906 13.5615 13.1894 12.2054 15.8094 12.2701C18.4035 12.3341 19.5256 13.8216 19.8353 16.2603C20.3054 19.957 19.5175 29.4124 20.0294 32.0046C20.9002 36.4136 27.6811 37.1482 29.9987 33.6689C31.1897 31.8813 30.8029 28.9647 30.8029 26.5712C30.8029 23.9336 30.8075 21.2954 30.8029 18.6575C30.7987 16.1332 31.4622 14.0081 33.0001 12.9318C34.5431 11.8516 37.4394 11.9621 38.7364 13.9202C39.9468 15.7479 39.7349 18.3684 39.7349 20.816C39.7349 23.488 39.7349 26.1603 39.7349 28.8324C39.7349 31.8458 39.714 33.455 41.6688 34.831C43.3739 36.0309 46.0558 36.267 48.0635 35.1895C50.0158 34.1415 50.6116 32.7803 50.61 29.8603C50.6088 27.188 50.61 24.516 50.61 21.8439C50.61 16.6488 50.891 12.0051 48.6434 7.91922C46.8613 4.67949 43.8118 2.00437 38.729 1.9288C35.1025 1.87491 32.6796 3.28305 30.5937 5.6953C30.2719 6.06699 30.0158 6.33405 29.7 6.75344C29.4174 7.12867 29.0968 7.68712 28.7247 7.89254C28.0213 6.17791 26.9334 4.70393 25.7889 3.74226C22.9603 1.36641 18.1268 1.43883 14.7897 3.25085C13.5227 3.93914 11.7874 5.30851 10.9073 6.39109V6.39096Z" fill="#FEFEFE"/>
<path fill-rule="evenodd" clip-rule="evenodd" d="M108.923 19.1716C108.562 19.6789 103.097 25.0468 102.522 25.619C101.619 26.5186 100.191 27.6158 99.925 29.4994C99.3499 33.5737 104.557 37.9231 108.482 34.9713L116.604 26.8867C117.047 27.0762 122.307 32.4648 123.101 33.2554C124.011 34.1628 125.106 35.6107 126.927 35.8913C128.965 36.2057 130.673 35.1728 131.633 34.1751C132.587 33.186 133.678 31.6357 133.431 29.5762C133.202 27.6673 131.78 26.5942 130.873 25.6907C130.01 24.8322 124.707 19.6546 124.42 19.1716C124.693 18.6495 126.974 16.5324 127.572 15.9298C128.668 14.8233 129.709 13.8004 130.811 12.6947C131.732 11.7712 133.143 10.7393 133.418 8.83279C133.905 5.46005 130.417 1.99044 127.026 2.43113C125.164 2.67335 124.037 4.13642 123.143 5.02751C122.349 5.81859 117.019 11.2474 116.618 11.452C114.47 9.31882 112.356 7.20766 110.197 5.04959C109.271 4.12328 108.23 2.68807 106.342 2.43533C102.975 1.98453 99.501 5.39368 99.9129 8.75682C100.15 10.6908 101.574 11.7551 102.48 12.6633C103.587 13.771 104.615 14.7911 105.719 15.8988C106.25 16.431 108.691 18.7798 108.923 19.1716Z" fill="#FEFEFE"/>
<path d="M132.749 19.3448V19.728C132.749 22.64 135.063 25.0006 137.916 25.0006L138.571 25.0006C141.424 25.0006 143.738 22.64 143.738 19.728V19.3448C143.738 16.4329 141.424 14.0723 138.571 14.0723L137.916 14.0723C135.063 14.0723 132.749 16.4329 132.749 19.3448Z" fill="#FEFEFE"/>
<path d="M148.506 34.4295C147.475 33.3544 146.964 32.0757 146.964 30.594V7.56581C146.964 6.64068 147.197 5.78337 147.671 4.97875C148.137 4.1815 148.776 3.54972 149.581 3.08354C150.393 2.62459 151.281 2.3913 152.251 2.3913C153.191 2.40642 154.056 2.64746 154.838 3.11338C155.628 3.58744 156.245 4.21949 156.703 5.0241C157.155 5.82095 157.388 6.70074 157.388 7.6561V14.1536L166.548 4.15128C166.961 3.70008 167.473 3.30132 168.09 2.96289C168.699 2.66954 169.428 2.51945 170.293 2.51945C171.338 2.51945 172.294 2.78993 173.158 3.32406C174.031 3.86555 174.663 4.61746 175.076 5.58754C175.385 6.30185 175.543 7.07663 175.543 7.89675C175.543 9.28044 175.099 10.3862 174.219 11.228L167.104 18.0347L175.257 27.2025C176.137 28.2102 176.573 29.3757 176.573 30.6842C176.573 31.4288 176.4 32.1733 176.062 32.9032C175.716 33.64 175.227 34.2497 174.595 34.7379C174.023 35.1744 173.361 35.4902 172.61 35.6859C171.993 35.7983 171.534 35.8588 171.241 35.8588C170.511 35.8588 169.804 35.708 169.127 35.4149C168.451 35.1216 167.879 34.7076 167.412 34.1587L157.343 21.8251V30.639C157.343 32.1506 156.831 33.4146 155.823 34.4292C154.808 35.4377 153.59 35.9489 152.16 35.9489C151.514 35.9489 150.889 35.8284 150.281 35.5804C149.671 35.3393 149.077 34.9564 148.506 34.4293V34.4295ZM197.511 26.5627C199.068 26.2698 200.166 25.6756 200.813 24.7733H198.105C196.811 24.7733 195.721 24.3217 194.834 23.4121C193.946 22.5021 193.495 21.404 193.495 20.1255C193.525 19.2755 193.743 18.5085 194.134 17.824C194.533 17.1399 195.082 16.5907 195.781 16.1846C196.473 15.7709 197.24 15.5679 198.06 15.5679H206.807C210.026 15.5679 211.635 17.3348 211.635 20.8778C211.635 21.9075 211.529 22.9607 211.326 24.0513C211.115 25.4125 210.612 26.826 209.8 28.2779C208.905 29.8798 207.761 31.2561 206.378 32.4141C204.987 33.5652 203.392 34.4447 201.595 35.0461C199.797 35.6481 197.819 35.9492 195.661 35.9492C194.428 35.9492 193.059 35.8287 191.562 35.5958C189.502 35.2423 187.644 34.6253 185.974 33.7533C184.304 32.8804 182.845 31.7525 181.597 30.3763C180.348 28.9926 179.356 27.4206 178.604 25.6606C177.739 23.5704 177.303 21.4568 177.303 19.3132C177.303 16.4932 178.017 13.8232 179.454 11.3039C180.883 8.78429 182.906 6.70101 185.523 5.0542C188.373 3.2795 191.615 2.39157 195.263 2.39157C195.729 2.39157 196.406 2.4218 197.285 2.48186C198.857 2.60974 200.391 2.91098 201.896 3.38491C203.332 3.85122 204.686 4.46776 205.949 5.23438C208.521 6.91918 209.8 8.73185 209.8 10.6497C209.8 11.8001 209.273 12.8306 208.213 13.7631C207.468 14.417 206.566 14.7483 205.505 14.7483C204.731 14.7483 203.896 14.5677 203.016 14.1991H202.971L201.076 13.2065C200.67 12.9732 200.354 12.8154 200.128 12.7251C198.293 11.8751 196.586 11.4464 194.999 11.4464C193.721 11.4464 192.57 11.7022 191.562 12.2061C190.547 12.71 189.705 13.4623 189.028 14.4397C188.351 15.4253 187.9 16.5683 187.681 17.8542C187.591 18.2681 187.546 18.674 187.546 19.0728C187.546 19.5841 187.591 20.0805 187.681 20.5693C187.944 21.8778 188.419 22.9986 189.095 23.9307C189.765 24.8632 190.622 25.5783 191.66 26.0896C192.698 26.5931 193.864 26.8493 195.172 26.8493C195.969 26.8493 196.744 26.7516 197.511 26.5629L197.511 26.5627Z" fill="#FEFEFE"/>
</g>
</g>
</g>
<defs>
<clipPath id="clip0_1_5">
<rect width="211.66" height="35.73" fill="white" transform="translate(0 0.879997)"/>
</clipPath>
<clipPath id="clip1_1_5">
<rect width="211.66" height="35.73" fill="white" transform="translate(0 0.879997)"/>
</clipPath>
<clipPath id="clip2_1_5">
<rect width="211.61" height="35.73" fill="white" transform="translate(0.0250244 0.879997)"/>
</clipPath>
</defs>
</svg>
