<svg width="500" height="500" viewBox="0 0 500 500" fill="none" xmlns="http://www.w3.org/2000/svg">
<path d="M0 9.99999C0 4.47714 4.47715 0 10 0H490C495.523 0 500 4.47715 500 10V490C500 495.523 495.523 500 490 500H9.99999C4.47714 500 0 495.523 0 490V9.99999Z" fill="url(#paint0_linear_258_384)"/>
<path fill-rule="evenodd" clip-rule="evenodd" d="M151.782 145.596C146.167 150.284 137.576 148.658 133.738 142.431C129.572 135.672 123.227 129.875 109.945 127.318C89.8476 123.65 74.0567 130.987 65.4435 141.52C55.5144 153.592 58.3855 175.486 58.3855 193.83V313.479C58.3855 334.427 55.2751 351.469 67.2379 364.842C88.1728 388.393 138.656 379.754 140.809 343.539C142.484 314.307 137.818 249.69 143.8 226.612C147.987 210.398 157.916 200.22 177.774 200.694C197.393 201.167 206.006 212.292 208.279 230.636C211.868 258.447 205.887 329.338 209.835 348.865C216.414 382.002 267.854 387.446 285.439 361.291C294.531 347.918 291.54 326.024 291.54 308.035C291.54 288.271 291.54 268.389 291.54 248.625C291.54 229.689 296.565 213.712 308.169 205.664C319.892 197.498 341.904 198.327 351.713 213.12C360.925 226.849 359.37 246.494 359.37 264.838C359.37 284.957 359.37 304.958 359.37 325.077C359.37 347.681 359.13 359.753 373.964 370.049C387.004 379.044 407.34 380.819 422.533 372.771C437.367 364.842 441.913 354.664 441.913 332.77C441.913 312.651 441.913 292.65 441.913 272.531C441.913 233.594 444.066 198.682 426.959 168.03C413.441 143.65 390.234 123.65 351.713 123.058C324.199 122.584 305.776 133.236 289.985 151.343C287.473 154.065 285.559 156.077 283.167 159.272C283.111 159.346 283.055 159.421 282.998 159.496C279.451 164.255 273.832 162.973 270.893 157.816C266.003 149.237 259.879 141.942 253.499 136.668C232.085 118.797 195.36 119.389 169.998 132.999C164.478 135.935 157.762 140.603 151.782 145.596Z" fill="white"/>
<defs>
<linearGradient id="paint0_linear_258_384" x1="-5.60151e-06" y1="321.428" x2="497.936" y2="304.294" gradientUnits="userSpaceOnUse">
<stop stop-color="#112B66"/>
<stop offset="1" stop-color="#991A4E"/>
</linearGradient>
</defs>
</svg>
