<svg width="1200" height="800" viewBox="0 0 1200 800" fill="none" xmlns="http://www.w3.org/2000/svg">
<rect width="1200" height="800" fill="white"/>
<rect x="315" y="165" width="570" height="470" rx="25" stroke="#CCCCCC" stroke-width="30"/>
<circle cx="440" cy="290" r="50" fill="#D9D9D9"/>
<path d="M468.43 390.643L391.821 467.648C388.093 471.396 386 476.468 386 481.754V511C386 522.046 394.954 531 406 531H794C805.046 531 814 522.046 814 511V403.784C814 398.48 811.893 393.393 808.142 389.642L701.642 283.142C693.832 275.332 681.168 275.332 673.358 283.142L545.57 410.93C537.788 418.712 525.18 418.745 517.358 411.003L496.678 390.534C488.842 382.777 476.207 382.826 468.43 390.643Z" fill="#D9D9D9"/>
</svg>
