<svg width="1000" height="1000" viewBox="0 0 1000 1000" fill="none" xmlns="http://www.w3.org/2000/svg">
<rect width="1000" height="1000" fill="white"/>
<rect x="115" y="165" width="770" height="670" rx="25" stroke="#CCCCCC" stroke-width="30"/>
<circle cx="270" cy="320" r="75" fill="#D9D9D9"/>
<path d="M321.211 484.844L205.821 600.831C202.093 604.579 200 609.65 200 614.937V667.29C200 678.336 208.954 687.29 220 687.29H780C791.046 687.29 800 678.336 800 667.29V505.621C800 500.317 797.893 495.23 794.142 491.479L636.806 334.142C628.995 326.332 616.332 326.332 608.521 334.142L418.042 524.622C410.26 532.404 397.652 532.437 389.83 524.694L349.459 484.735C341.622 476.978 328.987 477.027 321.211 484.844Z" fill="#D9D9D9"/>
</svg>
