<svg width="55" height="64" viewBox="0 0 55 64" fill="none" xmlns="http://www.w3.org/2000/svg">
<path fill-rule="evenodd" clip-rule="evenodd" d="M31.1265 3.24051C31.1265 1.45082 29.5028 0 27.5 0C25.4972 0 23.8736 1.45082 23.8736 3.24051V5.67089H21.8521C13.783 5.67089 7.10458 11.277 6.60088 18.4733L5.79943 29.9235C5.49386 34.2891 3.85366 38.4961 1.05745 42.0863C-1.46903 45.3303 0.780169 49.8105 5.17154 50.2814L17.5273 51.6063V55.0886C17.5273 60.0102 21.9922 64 27.5 64C33.0078 64 37.4727 60.0102 37.4727 55.0886V51.6063L49.8285 50.2814C54.2198 49.8105 56.469 45.3303 53.9425 42.0863C51.1463 38.4961 49.5061 34.2891 49.2006 29.9235L48.3991 18.4733C47.8954 11.277 41.217 5.67089 33.1479 5.67089H31.1265V3.24051ZM21.8521 10.5316C16.6554 10.5316 12.3543 14.1421 12.0299 18.7767L11.2285 30.2269C10.8608 35.4802 8.88707 40.5426 5.52228 44.8629C5.33968 45.0974 5.50224 45.4212 5.81965 45.4553L19.3741 46.9087C24.772 47.4875 30.228 47.4875 35.6259 46.9087L49.1804 45.4553C49.4978 45.4212 49.6603 45.0974 49.4777 44.8629C46.1129 40.5427 44.1392 35.4802 43.7715 30.2269L42.9701 18.7767C42.6457 14.1421 38.3446 10.5316 33.1479 10.5316H21.8521ZM27.5 59.1392C24.9965 59.1392 22.967 57.3257 22.967 55.0886V52.6582H32.0331V55.0886C32.0331 57.3257 30.0036 59.1392 27.5 59.1392Z" fill="#112B66"/>
</svg>
