<svg width="61" height="70" viewBox="0 0 61 70" fill="none" xmlns="http://www.w3.org/2000/svg">
<path fill-rule="evenodd" clip-rule="evenodd" d="M38.5257 6.87008L41.2743 7.21581C47.6187 8.0138 52.381 13.4596 52.381 19.9165V55.7171C52.381 61.9865 47.757 67.2741 41.597 68.0489C31.3655 69.3358 21.0155 69.3358 10.784 68.0489C4.62391 67.2741 0 61.9865 0 55.7171V19.9165C0 13.4596 4.76226 8.0138 11.1066 7.21581L13.8553 6.87008C14.9441 2.90808 18.5413 0 22.8111 0H29.5699C33.8397 0 37.4369 2.90808 38.5257 6.87008ZM13.5177 12.0716L11.7331 12.2961C7.92648 12.7749 5.06912 16.0423 5.06912 19.9165V55.7171C5.06912 59.4037 7.78813 62.513 11.4104 62.9686C21.2259 64.2032 31.1551 64.2032 40.9705 62.9686C44.5928 62.513 47.3118 59.4037 47.3118 55.7171V19.9165C47.3118 16.0424 44.4545 12.7749 40.6479 12.2961L38.8633 12.0716V16.2119C38.8633 17.6256 37.7285 18.7716 36.3287 18.7716H16.0522C14.6524 18.7716 13.5177 17.6256 13.5177 16.2119V12.0716ZM18.5868 9.38581C18.5868 7.02961 20.4781 5.11953 22.8111 5.11953H29.5699C31.9029 5.11953 33.7942 7.02961 33.7942 9.38581V13.6521H18.5868V9.38581Z" fill="#112B66"/>
<path d="M38.8633 32.4237C38.8633 31.01 37.7285 29.8639 36.3287 29.8639H16.0522C14.6524 29.8639 13.5177 31.01 13.5177 32.4237C13.5177 33.8374 14.6524 34.9835 16.0522 34.9835H36.3287C37.7285 34.9835 38.8633 33.8374 38.8633 32.4237Z" fill="#112B66"/>
<path d="M35.4839 42.6628C35.4839 41.2491 34.3491 40.103 32.9493 40.103H16.0522C14.6524 40.103 13.5177 41.2491 13.5177 42.6628C13.5177 44.0765 14.6524 45.2225 16.0522 45.2225H32.9493C34.3491 45.2225 35.4839 44.0765 35.4839 42.6628Z" fill="#112B66"/>
<path d="M35.8215 52.7465C35.8215 51.3328 34.6867 50.1867 33.2869 50.1867H16.3898C14.99 50.1867 13.8553 51.3328 13.8553 52.7465C13.8553 54.1602 14.99 55.3062 16.3898 55.3062H33.2869C34.6867 55.3062 35.8215 54.1602 35.8215 52.7465Z" fill="#112B66"/>
<rect x="33.3335" y="42.3944" width="27" height="27" rx="13.5" fill="white"/>
<path d="M47.9906 48.1801C47.9906 47.541 47.4726 47.023 46.8335 47.023C46.1944 47.023 45.6764 47.541 45.6764 48.1801V55.8944C45.6764 56.2934 45.8819 56.6642 46.2202 56.8756L50.8488 59.7685C51.3907 60.1072 52.1046 59.9425 52.4433 59.4005C52.782 58.8586 52.6173 58.1447 52.0754 57.806L47.9906 55.253V48.1801Z" fill="#112B66"/>
<path fill-rule="evenodd" clip-rule="evenodd" d="M46.8335 42.3944C39.3777 42.3944 33.3335 48.4385 33.3335 55.8944C33.3335 63.3502 39.3777 69.3944 46.8335 69.3944C54.2893 69.3944 60.3335 63.3502 60.3335 55.8944C60.3335 48.4385 54.2893 42.3944 46.8335 42.3944ZM35.6478 55.8944C35.6478 49.7167 40.6558 44.7087 46.8335 44.7087C53.0112 44.7087 58.0192 49.7167 58.0192 55.8944C58.0192 62.0721 53.0112 67.0801 46.8335 67.0801C40.6558 67.0801 35.6478 62.0721 35.6478 55.8944Z" fill="#112B66"/>
</svg>
