<svg width="55" height="70" viewBox="0 0 55 70" fill="none" xmlns="http://www.w3.org/2000/svg">
<path fill-rule="evenodd" clip-rule="evenodd" d="M40.452 6.96822L43.3381 7.31889C49.9996 8.12829 55 13.6519 55 20.201V56.5131C55 62.872 50.1449 68.2351 43.6768 69.021C32.9338 70.3263 22.0662 70.3263 11.3232 69.021C4.85511 68.2351 0 62.872 0 56.5131V20.201C0 13.6518 5.00037 8.12829 11.6619 7.31889L14.548 6.96822C15.6913 2.94963 19.4684 0 23.9516 0H31.0484C35.5316 0 39.3087 2.94963 40.452 6.96822ZM14.1935 12.2441L12.3197 12.4718C8.3228 12.9574 5.32258 16.2715 5.32258 20.201V56.5131C5.32258 60.2524 8.17754 63.406 11.981 63.8682C22.2872 65.1204 32.7128 65.1204 43.019 63.8682C46.8225 63.406 49.6774 60.2524 49.6774 56.5131V20.201C49.6774 16.2715 46.6772 12.9574 42.6803 12.4718L40.8064 12.2441V16.4435C40.8064 17.8774 39.6149 19.0398 38.1452 19.0398H16.8548C15.385 19.0398 14.1935 17.8774 14.1935 16.4435V12.2441ZM19.5161 9.51989C19.5161 7.13003 21.502 5.19267 23.9516 5.19267H31.0484C33.498 5.19267 35.4839 7.13003 35.4839 9.51989V13.8471H19.5161V9.51989Z" fill="#112B66"/>
<path d="M40.8064 32.8869C40.8064 31.453 39.6149 30.2906 38.1452 30.2906H16.8548C15.385 30.2906 14.1935 31.453 14.1935 32.8869C14.1935 34.3208 15.385 35.4832 16.8548 35.4832H38.1452C39.6149 35.4832 40.8064 34.3208 40.8064 32.8869Z" fill="#112B66"/>
<path d="M37.2581 43.2722C37.2581 41.8383 36.0666 40.6759 34.5968 40.6759H16.8548C15.385 40.6759 14.1935 41.8383 14.1935 43.2722C14.1935 44.7062 15.385 45.8686 16.8548 45.8686H34.5968C36.0666 45.8686 37.2581 44.7062 37.2581 43.2722Z" fill="#112B66"/>
<path d="M37.6125 53.5C37.6125 52.0661 36.4211 50.9037 34.9513 50.9037H17.2093C15.7395 50.9037 14.548 52.0661 14.548 53.5C14.548 54.9339 15.7395 56.0963 17.2093 56.0963H34.9513C36.4211 56.0963 37.6125 54.9339 37.6125 53.5Z" fill="#112B66"/>
</svg>
