<svg width="55" height="55" viewBox="0 0 55 55" fill="none" xmlns="http://www.w3.org/2000/svg">
<path fill-rule="evenodd" clip-rule="evenodd" d="M0 18.1303C0 7.88701 7.44588 0 16.1857 0C20.6909 0 24.6552 2.54949 27.5 5.84833C30.3448 2.54949 34.3091 0 38.8143 0C47.5541 0 55 7.88701 55 18.1303C55 25.147 52.5207 31.3175 49.0857 36.5334C45.6567 41.7403 41.1713 46.1594 36.8766 49.7502C35.2363 51.1218 33.5768 52.387 32.058 53.3205C30.6319 54.197 28.9921 55 27.5 55C26.0079 55 24.3681 54.197 22.942 53.3205C21.4232 52.387 19.7637 51.1218 18.1234 49.7502C13.8287 46.1594 9.34331 41.7403 5.91429 36.5334C2.47934 31.3175 0 25.147 0 18.1303ZM16.1857 5.68966C9.65093 5.68966 4.71429 11.4897 4.71429 18.1303C4.71429 23.4539 6.58676 28.4103 9.60486 32.9932C12.6289 37.5851 16.6978 41.6366 20.808 45.0733C22.3634 46.3737 23.8283 47.4802 25.0814 48.2504C26.4272 49.0776 27.2067 49.3103 27.5 49.3103C27.7933 49.3103 28.5728 49.0776 29.9186 48.2504C31.1717 47.4802 32.6366 46.3737 34.192 45.0733C38.3022 41.6366 42.3711 37.5851 45.3951 32.9932C48.4132 28.4103 50.2857 23.4539 50.2857 18.1303C50.2857 11.4897 45.3491 5.68966 38.8143 5.68966C35.0612 5.68966 31.5568 8.39574 29.3686 11.8304C28.9225 12.5307 28.232 12.9412 27.5 12.9412C26.768 12.9412 26.0775 12.5307 25.6314 11.8304C23.4432 8.39574 19.9388 5.68966 16.1857 5.68966Z" fill="#112B66"/>
</svg>
