<svg width="55" height="50" viewBox="0 0 55 50" fill="none" xmlns="http://www.w3.org/2000/svg">
<path fill-rule="evenodd" clip-rule="evenodd" d="M50.0938 6.66667H11.4339L8.13068 1.02559C7.75992 0.39241 7.05851 0 6.29751 0H2.09917C0.93983 0 0 0.895431 0 2C0 3.10457 0.939829 4 2.09917 4H5.06487L8.32472 9.56707L15.8428 25.4157L15.8505 25.4319L16.5126 26.8278L8.96447 34.4988C8.42174 35.0504 8.25184 35.8464 8.52538 36.5561C8.79892 37.2658 9.46913 37.7679 10.2575 37.8537L17.1376 38.6029C25.7433 39.5399 34.433 39.5399 43.0387 38.6029L49.9187 37.8537C51.0706 37.7283 51.8976 36.737 51.766 35.6396C51.6343 34.5422 50.5939 33.7542 49.442 33.8796L42.562 34.6288C34.2731 35.5313 25.9032 35.5313 17.6143 34.6288L14.8839 34.3315L20.424 28.7012C20.4776 28.6468 20.5273 28.5902 20.5733 28.5318L22.6804 28.793C25.633 29.1591 28.6176 29.2308 31.5858 29.0072C38.5088 28.4855 44.9251 25.3469 49.4046 20.2909L51.0225 18.4647C51.0768 18.4033 51.1273 18.339 51.1735 18.2718L54.1889 13.8936C56.3263 10.7902 53.9897 6.66667 50.0938 6.66667ZM20.7294 24.5175C20.2664 24.4601 19.8672 24.1799 19.6722 23.7761L19.6685 23.7683L13.4535 10.6667H50.0938C50.6504 10.6667 50.9842 11.2557 50.6788 11.6991L47.7328 15.9766L46.1964 17.7107C42.4402 21.9504 37.0599 24.5822 31.2548 25.0196C28.5775 25.2214 25.8853 25.1566 23.2221 24.8265L20.7294 24.5175Z" fill="#112B66"/>
<path d="M14.6942 42C12.3755 42 10.4958 43.7909 10.4958 46C10.4958 48.2091 12.3755 50 14.6942 50C17.0129 50 18.8925 48.2091 18.8925 46C18.8925 43.7909 17.0129 42 14.6942 42Z" fill="#112B66"/>
<path d="M41.2837 46C41.2837 43.7909 43.1633 42 45.482 42C47.8007 42 49.6803 43.7909 49.6803 46C49.6803 48.2091 47.8007 50 45.482 50C43.1633 50 41.2837 48.2091 41.2837 46Z" fill="#112B66"/>
</svg>
