<svg width="36" height="36" viewBox="0 0 36 36" fill="none" xmlns="http://www.w3.org/2000/svg">
<path d="M35.385 5.20717C35.003 4.15621 34.3954 3.20178 33.605 2.41103C32.8146 1.62029 31.8605 1.01244 30.81 0.630263C28.845 4.47221e-08 27.06 0 23.43 0H12.54C8.94 0 7.125 0 5.19 0.60025C4.13796 0.984018 3.18296 1.59416 2.39244 2.38761C1.60193 3.18105 0.995162 4.13843 0.615 5.19216C0 7.14298 0 8.94373 0 12.5452V23.4548C0 27.0713 0 28.857 0.6 30.8078C0.982016 31.8588 1.58961 32.8132 2.38003 33.604C3.17045 34.3947 4.12448 35.0026 5.175 35.3847C7.125 36 8.925 36 12.525 36H23.445C27.06 36 28.86 36 30.795 35.3997C31.8498 35.0178 32.8078 34.4085 33.601 33.615C34.3942 32.8214 35.0032 31.8631 35.385 30.8078C36 28.857 36 27.0563 36 23.4548V12.5752C36 8.95873 36 7.15798 35.385 5.20717V5.20717ZM26.13 12.1551L24.735 13.5506C24.5991 13.6772 24.421 13.7487 24.2354 13.7515C24.0497 13.7543 23.8697 13.688 23.73 13.5657C22.379 12.4242 20.6683 11.7971 18.9 11.7949C17.445 11.7949 15.99 12.2751 15.99 13.6107C15.99 14.9612 17.55 15.4114 19.35 16.0867C22.5 17.1371 25.11 18.4577 25.11 21.549C25.11 24.9104 22.5 27.2213 18.24 27.4764L17.85 29.2772C17.8155 29.4427 17.7251 29.5912 17.594 29.6978C17.4628 29.8044 17.299 29.8626 17.13 29.8624H14.445L14.31 29.8474C14.1178 29.8043 13.9503 29.6873 13.8437 29.5216C13.737 29.3559 13.6998 29.155 13.74 28.9621L14.16 27.0563C12.5433 26.6508 11.0566 25.84 9.84 24.7003V24.6853C9.77288 24.6184 9.71962 24.5388 9.68328 24.4513C9.64694 24.3637 9.62823 24.2699 9.62823 24.1751C9.62823 24.0803 9.64694 23.9864 9.68328 23.8988C9.71962 23.8113 9.77288 23.7318 9.84 23.6649L11.34 22.2093C11.4762 22.0816 11.6559 22.0106 11.8425 22.0106C12.0291 22.0106 12.2088 22.0816 12.345 22.2093C13.71 23.4998 15.54 24.2201 17.43 24.1901C19.38 24.1901 20.685 23.3647 20.685 22.0592C20.685 20.7536 19.365 20.4085 16.875 19.4781C14.235 18.5327 11.73 17.1972 11.73 14.0759C11.73 10.4444 14.745 8.67361 18.315 8.50854L18.69 6.66278C18.7249 6.49874 18.8159 6.35202 18.9473 6.24792C19.0788 6.14382 19.2424 6.08887 19.41 6.09254H22.08L22.23 6.10754C22.62 6.19758 22.875 6.57274 22.785 6.9629L22.38 9.01876C23.73 9.46894 25.005 10.1742 26.1 11.1046L26.13 11.1346C26.415 11.4348 26.415 11.885 26.13 12.1551V12.1551Z" fill="#0C54A1"/>
</svg>
