<svg width="34" height="34" viewBox="0 0 34 34" fill="none" xmlns="http://www.w3.org/2000/svg">
<path d="M29.7429 9.77496C29.7194 9.53688 29.6358 9.30867 29.5 9.11169C29.3643 8.91472 29.1807 8.75542 28.9666 8.64871L17.6333 2.98204C17.4364 2.88355 17.2194 2.83228 16.9993 2.83228C16.7792 2.83228 16.5622 2.88355 16.3653 2.98204L5.03201 8.64871C4.81848 8.75603 4.6355 8.91552 4.50003 9.1124C4.36457 9.30928 4.28101 9.53717 4.25709 9.77496C4.24151 9.92654 2.89567 25.0282 16.4248 31.0448C16.6056 31.1264 16.8017 31.1686 17 31.1686C17.1983 31.1686 17.3944 31.1264 17.5752 31.0448C31.1043 25.0282 29.7585 9.92796 29.7429 9.77496ZM17 28.1874C7.41059 23.552 6.95726 13.6595 7.03517 10.8162L17 5.83379L26.9578 10.8134C27.0102 13.6311 26.4931 23.5889 17 28.1874Z" fill="#112B66"/>
<path d="M15.5833 17.8302L12.3349 14.5817L10.3318 16.5849L15.5833 21.8365L23.6683 13.7516L21.6651 11.7484L15.5833 17.8302Z" fill="#112B66"/>
</svg>
