<svg width="34" height="29" viewBox="0 0 34 29" fill="none" xmlns="http://www.w3.org/2000/svg">
<g clip-path="url(#clip0_297_397)">
<path fill-rule="evenodd" clip-rule="evenodd" d="M25.0739 9.2194H30.165V8.44743C29.3682 5.47852 27.3428 5.49788 24.8387 5.52279C24.4264 5.52832 24.0529 5.53109 24.0308 5.53109H4.99984C4.56266 5.53109 4.2085 5.17692 4.2085 4.73975C4.2085 4.30257 4.56266 3.94841 4.99984 3.94841H24.0308C24.5924 3.94841 24.7114 3.94841 24.8249 3.94564C26.9665 3.9235 28.8369 3.90413 30.165 5.15755V4.79508C30.165 3.90967 29.8026 3.10726 29.2188 2.52344C28.6349 1.93962 27.8298 1.57715 26.9471 1.57715H4.79785C3.91244 1.57715 3.11003 1.93962 2.5262 2.52344C1.94238 3.10726 1.57992 3.91243 1.57992 4.79508V23.2339C1.57992 24.1193 1.94238 24.9217 2.5262 25.5055C3.11003 26.0894 3.9152 26.4518 4.79785 26.4518H26.9443C27.8298 26.4518 28.6322 26.0894 29.216 25.5055C29.7998 24.9217 30.1623 24.1165 30.1623 23.2339V20.6164H25.0711C23.5355 20.6164 22.1382 19.9883 21.1283 18.9784C20.1183 17.9684 19.4902 16.5711 19.4902 15.0355V14.7948C19.4902 13.2591 20.1183 11.8618 21.1283 10.8519C22.141 9.84749 23.5355 9.2194 25.0739 9.2194ZM31.745 9.24984C32.3177 9.33561 32.8296 9.60677 33.2197 9.99967C33.7012 10.4811 33.9972 11.1452 33.9972 11.8757V17.8522C33.9972 18.6159 33.6873 19.3076 33.1865 19.8084C32.8019 20.193 32.3011 20.467 31.745 20.5721V23.2367C31.745 24.5565 31.2054 25.7573 30.3366 26.6261C29.4678 27.495 28.2669 28.0345 26.9471 28.0345H4.79785C3.47803 28.0345 2.27718 27.495 1.40837 26.6261C0.539551 25.7601 0 24.5592 0 23.2394V4.79785C0 3.47803 0.539551 2.27718 1.40837 1.40837C2.27718 0.539551 3.47803 0 4.79785 0H26.9443C28.2642 0 29.465 0.539551 30.3338 1.40837C31.2026 2.27718 31.7422 3.47803 31.7422 4.79785V9.24984H31.745ZM24.3877 12.7583C25.5083 12.7583 26.4159 13.6659 26.4159 14.7865C26.4159 15.9071 25.5083 16.8146 24.3877 16.8146C23.2671 16.8146 22.3595 15.9071 22.3595 14.7865C22.3595 13.6659 23.2671 12.7583 24.3877 12.7583Z" fill="#112B66"/>
</g>
<defs>
<clipPath id="clip0_297_397">
<rect width="34" height="28.0373" fill="white"/>
</clipPath>
</defs>
</svg>
